<?xml version="1.0" standalone="no"?>
<!DOCTYPE svg PUBLIC "-//W3C//DTD SVG 20010904//EN"
 "http://www.w3.org/TR/2001/REC-SVG-20010904/DTD/svg10.dtd">
<svg version="1.0" xmlns="http://www.w3.org/2000/svg"
 width="512.000000pt" height="512.000000pt" viewBox="0 0 512.000000 512.000000"
 preserveAspectRatio="xMidYMid meet">
<metadata>
Created by potrace 1.14, written by Peter Selinger 2001-2017
</metadata>
<g transform="translate(0.000000,512.000000) scale(0.100000,-0.100000)"
fill="#000000" stroke="none">
<path d="M2521 3120 c-5 -16 -17 -30 -25 -30 -9 0 -16 -4 -16 -10 0 -5 7 -10
15 -10 12 0 15 -15 15 -78 0 -90 14 -112 68 -112 39 0 51 18 15 22 -28 3 -28
4 -31 86 -3 81 -3 82 22 82 14 0 28 5 31 10 4 6 -7 10 -24 10 -28 0 -31 3 -31
30 0 19 -5 30 -14 30 -8 0 -19 -13 -25 -30z"/>
<path d="M2773 3055 c-25 -18 -31 -45 -10 -45 7 0 20 9 30 20 32 38 107 15
107 -33 0 -14 -11 -16 -70 -14 -74 2 -91 -6 -105 -50 -10 -36 34 -73 85 -73
23 0 50 5 61 10 15 8 19 7 19 -4 0 -12 28 -31 36 -23 2 1 6 44 10 94 7 91 7
91 -20 108 -38 25 -115 31 -143 10z m98 -95 c30 0 21 -48 -14 -74 -26 -19 -30
-19 -55 -5 -36 20 -37 59 -2 76 14 7 31 11 38 8 8 -3 23 -5 33 -5z"/>
<path d="M2033 3045 c-18 -8 -33 -20 -33 -27 0 -8 -4 -7 -10 4 -11 18 -50 14
-49 -6 0 -6 8 -51 18 -101 16 -78 20 -90 37 -87 10 2 20 5 22 7 2 2 -2 37 -9
79 -12 69 -11 77 5 95 24 27 51 34 74 22 20 -11 22 -17 42 -113 10 -52 14 -58
36 -58 19 0 24 4 20 18 -3 9 -10 45 -17 80 -18 93 -60 120 -136 87z"/>
<path d="M3090 2968 c-6 -24 -18 -67 -27 -96 -16 -58 -16 -59 10 -64 14 -2 23
11 41 64 12 37 25 71 29 74 4 4 23 10 44 13 48 8 57 31 11 31 -19 0 -40 -6
-47 -12 -10 -11 -12 -9 -9 7 2 14 -3 21 -19 23 -18 3 -24 -4 -33 -40z"/>
<path d="M3370 2995 c-17 -21 -5 -45 24 -45 29 0 40 24 20 45 -19 19 -28 19
-44 0z"/>
<path d="M1695 2958 c-42 -15 -75 -47 -75 -75 0 -33 19 -29 32 7 17 50 87 70
108 31 14 -28 15 -28 -37 -45 -58 -20 -83 -42 -83 -73 0 -44 17 -63 58 -63 39
0 102 32 102 51 0 9 3 9 14 0 16 -13 49 -3 43 13 -53 133 -61 148 -84 157 -29
11 -39 11 -78 -3z m93 -111 c7 -33 -7 -63 -34 -76 -34 -15 -62 -6 -70 24 -8
31 1 44 40 61 39 17 60 14 64 -9z"/>
<path d="M3341 2908 c-5 -13 -21 -54 -36 -91 -28 -68 -25 -97 7 -84 17 6 82
173 73 187 -11 18 -35 11 -44 -12z"/>
<path d="M3574 2875 c-13 -19 -22 -24 -43 -19 l-26 5 23 -17 22 -17 -40 -73
c-44 -80 -48 -99 -24 -108 21 -8 14 -17 63 82 38 76 43 82 62 71 11 -6 24 -7
27 -3 4 4 3 8 -3 11 -31 11 -37 21 -26 42 13 23 40 28 59 9 9 -9 12 -9 12 3 0
17 -40 39 -70 39 -11 0 -27 -11 -36 -25z"/>
<path d="M1398 2846 c-104 -84 -108 -88 -108 -116 0 -31 19 -55 50 -65 15 -5
19 -12 15 -26 -5 -14 0 -21 15 -27 20 -7 20 -9 6 -21 -26 -22 -20 -60 9 -67
57 -14 185 65 185 114 0 25 -25 52 -48 52 -9 0 -37 -9 -61 -20 -70 -32 -81
-24 -28 21 39 34 47 46 47 75 0 28 -6 38 -32 54 -32 19 -32 20 -10 26 12 4 22
13 22 20 0 22 -15 17 -62 -20z m32 -67 c17 -31 8 -62 -22 -79 -34 -18 -58 -7
-73 35 -8 23 -6 30 14 46 31 25 67 24 81 -2z m88 -128 c39 -24 -29 -101 -90
-101 -59 0 -44 55 24 89 49 24 48 24 66 12z"/>
<path d="M3730 2685 c-67 -109 -79 -145 -48 -145 11 0 142 195 157 233 3 9
-17 27 -30 27 -4 0 -39 -52 -79 -115z"/>
<path d="M1052 2619 c-36 -23 -62 -65 -62 -100 0 -33 37 -85 69 -99 40 -16 85
-5 126 31 33 29 53 78 40 99 -11 17 -34 -8 -28 -30 6 -24 -46 -80 -75 -80 -11
0 -31 9 -46 21 l-27 21 76 57 76 56 -26 23 c-33 28 -80 28 -123 1z m87 -23 c9
-11 0 -22 -43 -54 -29 -23 -56 -38 -60 -35 -13 14 -5 64 14 83 23 23 72 26 89
6z"/>
<path d="M3903 2575 c-36 -15 -63 -60 -63 -104 0 -40 51 -97 97 -110 42 -12
98 3 73 20 -8 5 -28 6 -43 3 -33 -7 -74 17 -86 49 -9 24 5 77 20 77 5 0 40
-25 77 -55 61 -51 68 -54 79 -38 19 25 16 81 -7 113 -11 15 -38 35 -60 44 -48
19 -46 19 -87 1z m120 -47 c19 -22 22 -45 8 -67 -8 -12 -19 -7 -60 24 -28 22
-51 43 -51 47 0 13 43 27 65 21 11 -2 28 -14 38 -25z"/>
<path d="M855 2448 c-4 -10 4 -50 19 -95 14 -42 25 -78 23 -79 -1 -1 -39 10
-84 24 -69 21 -85 23 -98 12 -9 -7 -12 -17 -8 -21 16 -15 216 -70 224 -62 5 5
-8 58 -30 123 -27 80 -41 110 -46 98z"/>
<path d="M4132 2307 c-64 -64 -71 -75 -58 -87 18 -14 20 -13 89 47 39 35 74
41 107 21 10 -7 22 -9 26 -5 13 13 -19 37 -48 37 -26 0 -29 2 -18 15 10 12 10
18 0 30 -7 8 -15 15 -19 15 -4 0 -39 -33 -79 -73z"/>
</g>
</svg>
